<svg version="1.1" id="Layer_1" xmlns="http://www.w3.org/2000/svg" xmlns:xlink="http://www.w3.org/1999/xlink" x="0px" y="0px"
	 width="100%" viewBox="0 0 496 816" enable-background="new 0 0 496 816" xml:space="preserve">
<path fill="#000000" opacity="1.000000" stroke="none" 
	d="
M284.000000,776.148743 
	C216.337784,776.135925 149.175583,776.130676 82.013390,776.084351 
	C79.196808,776.082397 76.352959,775.876831 73.570709,775.448425 
	C69.726341,774.856689 67.866722,772.246460 67.612679,768.508362 
	C67.342255,764.529297 69.114944,761.828796 72.952179,760.504517 
	C75.383423,759.665588 77.883705,759.801086 80.376373,759.800110 
	C131.539551,759.780579 182.702744,759.768799 233.865921,759.758545 
	C240.664673,759.757141 240.716827,759.765076 240.718445,752.881042 
	C240.732056,695.218201 240.702499,637.555237 240.782562,579.892517 
	C240.787155,576.588989 239.702545,574.290344 237.311249,572.084656 
	C231.065735,566.323792 224.935852,560.428101 218.963654,554.384705 
	C216.266174,551.655090 213.226822,550.184875 209.531097,549.291321 
	C185.578796,543.500122 162.642624,535.203613 142.373505,520.757935 
	C121.021797,505.540833 108.237236,484.293976 99.812286,459.966034 
	C95.719490,448.147736 92.600838,436.077637 89.925850,423.888794 
	C88.075073,415.455597 92.130844,410.843658 99.928833,412.911316 
	C118.604065,417.862946 137.123962,423.369537 154.652390,431.695953 
	C183.920303,445.598969 202.827148,468.802612 214.491364,498.483429 
	C218.392181,508.409485 222.246628,518.455627 224.059021,528.920654 
	C225.883453,539.455139 231.530548,546.696960 240.154724,552.618958 
	C241.197952,551.059204 240.785675,549.218628 240.787537,547.531555 
	C240.830338,508.700867 240.795914,469.870087 240.901947,431.039642 
	C240.911804,427.428009 239.900574,424.837158 237.190796,422.332123 
	C230.832870,416.454620 224.761261,410.260773 218.705063,404.066589 
	C216.156128,401.459595 213.262222,399.991730 209.697952,399.172302 
	C191.602280,395.011963 174.327393,388.518219 157.774109,380.138763 
	C130.724640,366.445923 112.912811,344.691223 102.207672,316.615753 
	C96.732452,302.256348 92.855408,287.476868 89.544296,272.521729 
	C88.081032,265.912689 92.245361,261.407837 98.745308,262.926880 
	C121.185745,268.171265 143.090729,275.003784 163.301224,286.388367 
	C186.320953,299.355438 201.686432,318.989563 211.936325,342.938446 
	C217.775482,356.581696 222.549179,370.605316 225.586685,385.152008 
	C226.380264,388.952515 228.079727,391.869476 230.971497,394.367157 
	C233.984528,396.969513 236.765594,399.840485 239.918655,402.852509 
	C241.107422,401.010040 240.712814,399.188995 240.715454,397.513611 
	C240.775223,359.516174 240.758087,321.518555 240.887512,283.521423 
	C240.899826,279.906342 239.825378,277.241302 237.288742,274.678711 
	C218.884048,256.085693 200.573227,237.399475 182.299149,218.677887 
	C180.791855,217.133698 178.984131,216.631027 177.127274,215.906143 
	C164.824631,211.103561 159.521484,197.257690 165.329681,185.293640 
	C170.568237,174.502991 184.459244,170.524216 195.406906,176.678726 
	C205.665359,182.445801 209.054550,197.765762 202.258026,207.784012 
	C201.238312,209.287079 200.053909,210.678452 198.533600,212.658051 
	C211.540176,227.053650 225.584717,240.424744 239.361542,254.429245 
	C241.334793,252.407272 240.648132,250.326309 240.654221,248.509201 
	C240.748566,220.344589 240.889877,192.178955 240.706467,164.015625 
	C240.673721,158.986816 242.068771,156.901642 247.169907,157.609467 
	C249.933365,157.992905 252.799805,157.128403 256.231262,158.256760 
	C256.231262,190.348236 256.231262,222.569214 256.231262,254.763687 
	C258.768433,255.119675 259.431702,253.505737 260.390045,252.540298 
	C272.009979,240.834320 283.469879,228.966415 295.244141,217.418716 
	C298.381805,214.341385 298.732025,212.279892 295.945282,208.745468 
	C289.864471,201.033188 289.357025,192.347565 294.171326,183.945557 
	C298.517487,176.360611 305.731964,173.138077 314.450073,173.722229 
	C323.965912,174.359833 331.709015,181.285568 333.649689,190.647491 
	C335.969208,201.837311 332.715881,210.123276 322.925385,214.321808 
	C317.868317,216.490448 314.601929,219.991058 311.003265,223.637711 
	C294.381012,240.481491 277.669373,257.238037 260.865784,273.900787 
	C258.317474,276.427734 257.090118,278.972046 257.030640,282.617188 
	C256.421783,319.940277 256.194214,357.264404 256.348785,394.591492 
	C256.359070,397.071930 256.221436,399.574310 257.327118,402.758240 
	C263.123047,396.361267 270.256104,392.497406 272.197968,382.897766 
	C276.066132,363.775665 282.817596,345.460938 292.312439,328.252747 
	C307.019348,301.598267 330.097168,285.426147 357.957367,274.957672 
	C370.610107,270.203400 383.550873,266.495850 396.624725,263.204468 
	C404.973846,261.102539 409.130096,265.181854 407.407257,273.720215 
	C403.109314,295.020630 397.035645,315.756561 386.566315,334.934418 
	C371.639465,362.277618 347.726746,378.589111 319.262329,389.254211 
	C308.644409,393.232544 297.758453,396.302277 286.829895,399.231232 
	C283.825897,400.036316 281.335419,401.325165 279.152924,403.547424 
	C272.964539,409.848694 266.722717,416.101074 260.363922,422.229492 
	C258.047699,424.461823 256.913513,426.840240 256.921570,430.117279 
	C256.979675,453.764465 256.952179,477.412201 256.849884,501.059296 
	C256.786499,515.720032 256.527191,530.379883 256.400726,545.040466 
	C256.381042,547.328979 256.051636,549.716736 257.913940,552.489502 
	C263.377136,546.941040 270.195496,543.452942 271.909332,534.655701 
	C275.877380,514.287537 282.837677,494.878174 293.095886,476.744385 
	C308.000793,450.396423 331.333832,434.764465 359.085876,424.650696 
	C371.300537,420.199280 383.755707,416.550568 396.250336,413.033569 
	C405.012909,410.567047 409.371887,414.920288 407.477600,423.889465 
	C403.129669,444.476135 397.177826,464.479095 387.429932,483.286957 
	C374.183655,508.844635 353.073547,525.274536 327.154816,536.256226 
	C313.955902,541.848511 300.395721,546.423462 286.382233,549.567383 
	C283.552826,550.202148 281.222382,551.600769 279.122070,553.677734 
	C272.608673,560.118896 266.023438,566.492981 259.294800,572.707703 
	C256.996216,574.830750 256.952271,577.307861 256.953186,579.988403 
	C256.966095,617.152527 256.977844,654.316589 256.979736,691.480713 
	C256.980774,712.145935 256.945129,732.811218 256.964447,753.476440 
	C256.970367,759.814331 257.117218,759.904785 263.421997,759.897400 
	C314.585114,759.837158 365.748260,759.772766 416.911377,759.726074 
	C419.072510,759.724121 421.275421,759.647339 423.386414,760.018127 
	C427.970642,760.823120 430.657013,764.048157 430.586884,768.251709 
	C430.517548,772.405090 427.605927,775.458069 422.979706,776.073120 
	C421.502106,776.269531 419.985687,776.207642 418.487030,776.207153 
	C373.824677,776.192078 329.162354,776.169922 284.000000,776.148743 
M313.972076,473.459625 
	C301.148743,490.821167 293.309326,510.271698 288.540649,532.701233 
	C316.211639,524.977295 341.804016,516.186218 360.725494,495.183441 
	C376.889191,477.241760 384.667755,455.173157 389.965637,431.037994 
	C381.877350,432.295868 375.570282,434.865509 369.215607,437.145538 
	C348.125702,444.712372 328.596863,454.739868 313.972076,473.459625 
M113.552017,452.977539 
	C114.033867,454.219971 114.587196,455.439850 114.987221,456.708099 
	C128.259888,498.788147 160.485107,518.946106 200.233841,530.360229 
	C204.307449,531.529968 208.123993,528.115234 207.009079,524.174683 
	C200.927246,502.678772 192.827118,482.306610 176.612061,465.969727 
	C159.044769,448.270538 136.914642,439.600555 113.728874,432.753296 
	C110.158127,431.698792 109.118896,433.742279 109.419113,436.771759 
	C109.947510,442.103912 111.560883,447.189728 113.552017,452.977539 
M370.313568,286.904083 
	C355.213867,292.308899 340.680023,298.688354 328.164337,309.105621 
	C307.596527,326.224915 298.086273,349.631805 290.618469,374.223572 
	C289.431885,378.131073 292.805725,380.845367 296.911713,379.552124 
	C304.050842,377.303528 311.253082,375.198608 318.242950,372.544006 
	C335.751953,365.894379 351.532623,356.578796 363.540161,341.780029 
	C372.896637,330.248566 379.117828,317.049622 383.846130,303.099091 
	C386.155548,296.285370 388.776520,289.514160 389.358124,281.817169 
	C382.624969,282.548615 376.900726,284.841309 370.313568,286.904083 
M138.459412,347.039093 
	C141.718704,349.882721 144.948654,352.761047 148.251160,355.553558 
	C149.648254,356.734863 151.196289,358.042633 153.101898,357.893677 
	C159.710876,357.377014 164.242584,362.917694 170.407761,363.696930 
	C171.143417,363.789917 171.998459,364.954895 172.340652,365.806763 
	C174.138702,370.282898 177.971436,372.181854 182.083725,373.729828 
	C185.352646,374.960327 188.808441,375.780945 191.927887,377.302887 
	C197.415176,379.980072 200.118668,375.358734 203.742554,373.202087 
	C206.743866,371.415985 205.217773,368.535919 204.568161,366.443634 
	C198.835175,347.978882 190.837921,330.628235 177.102875,316.645508 
	C160.894043,300.144379 140.357346,291.212189 118.677780,284.514648 
	C112.072281,282.473969 108.747124,285.101013 110.494431,291.785187 
	C115.761551,311.934113 123.571999,330.915833 138.459412,347.039093 
z"/>
<path fill="#000000" opacity="1.000000" stroke="none" 
	d="
M165.100815,162.854218 
	C163.721130,181.574844 143.706467,188.881638 130.640671,179.307495 
	C123.203125,173.857559 119.800117,163.722549 122.754463,154.845398 
	C125.834198,145.591476 134.748489,139.902863 145.429947,140.375107 
	C154.050140,140.756210 162.168625,147.682388 164.235352,156.522705 
	C164.686798,158.453735 164.832611,160.456192 165.100815,162.854218 
z"/>
<path fill="#000000" opacity="1.000000" stroke="none" 
	d="
M372.021759,173.870972 
	C364.001862,184.502563 351.573547,186.766724 341.487183,179.723038 
	C332.203674,173.239990 329.738892,159.589355 336.089355,149.828400 
	C342.243225,140.369736 355.812469,137.710251 366.309631,143.905487 
	C375.595428,149.385803 378.195953,162.463348 372.021759,173.870972 
z"/>
<path fill="#000000" opacity="1.000000" stroke="none" 
	d="
M293.813751,101.509491 
	C288.300385,101.551773 285.018402,98.966713 283.440369,94.208015 
	C282.022491,89.932243 283.474457,86.304306 286.705841,83.522720 
	C290.139221,80.567253 294.144775,80.023094 298.246124,82.170540 
	C302.578247,84.438812 304.191498,88.264198 303.608002,92.942055 
	C302.990814,97.889969 299.962128,100.492607 293.813751,101.509491 
z"/>
<path fill="#000000" opacity="1.000000" stroke="none" 
	d="
M238.871521,58.532784 
	C241.712006,52.538261 245.834244,50.158993 250.754471,51.315372 
	C255.600174,52.454235 258.990662,56.513199 259.077545,61.279461 
	C259.162872,65.959106 255.411774,70.403503 250.503052,71.639343 
	C243.612289,73.374176 237.052246,66.157684 238.871521,58.532784 
z"/>
<path fill="#000000" opacity="1.000000" stroke="none" 
	d="
M258.632812,119.427963 
	C258.257965,126.479698 254.646393,130.699020 249.036942,131.112411 
	C244.217117,131.467606 239.485611,127.632782 238.740341,122.767166 
	C237.839035,116.883018 240.837830,112.055954 246.403976,110.431221 
	C252.069275,108.777542 256.625275,112.008713 258.632812,119.427963 
z"/>
<path fill="#000000" opacity="1.000000" stroke="none" 
	d="
M213.503510,95.995804 
	C210.034698,100.847397 205.564468,102.618652 200.823883,101.004074 
	C196.450897,99.514687 193.985779,96.219261 193.849167,91.644745 
	C193.717270,87.227676 196.043762,83.949326 200.122040,82.364388 
	C203.851440,80.915024 207.704163,81.036438 210.917374,83.808594 
	C214.637604,87.018143 215.101791,91.135605 213.503510,95.995804 
z"/>
<path fill="#000000" opacity="1.000000" stroke="none" 
	d="
M143.388519,319.357483 
	C145.816574,317.689331 147.388275,318.529175 148.452164,320.566833 
	C149.168518,321.938904 149.229202,323.453400 148.121613,324.705688 
	C147.141891,325.813385 146.033966,325.301788 145.028625,324.660919 
	C143.140259,323.457001 141.334991,322.194000 143.388519,319.357483 
z"/>
</svg>